# xmcd CD database file
#
# Track frame offsets:
#	150
#	19667
#	42655
#
# Disc length: 825 seconds
#
# Revision: 6
# Processed by: cddbd v1.5.2PL0 Copyright (c) Steve Scherf et al.
# Submitted via: CDex 1.70beta2
#
DISCID=1f033703
DTITLE=かないみか - ときめいてMy Heart
DYEAR=1995
DGENRE=seiyu
TTITLE0=ときめいてMy Heart -向かい風に乗って
TTITLE1=Happy Birthday
TTITLE2=ときめいてMy Heart -向かい風に乗って (original karaoke)
EXTD=YEAR: 1995
EXTT0=
EXTT1=
EXTT2=
PLAYORDER=
